<?xml version="1.0" encoding="utf-8"?>
<!-- Generator: Adobe Illustrator 27.5.0, SVG Export Plug-In . SVG Version: 6.00 Build 0)  -->
<svg version="1.1" xmlns="http://www.w3.org/2000/svg" xmlns:xlink="http://www.w3.org/1999/xlink" x="0px" y="0px"
	 viewBox="0 0 500 500" style="enable-background:new 0 0 500 500;" xml:space="preserve">
<g id="BACKGROUND">
	<g>
		<path style="fill:#F3F5F4;" d="M33.64,233.86c0-57.172,72.896-179.344,176.581-162.809
			c74.507,11.882,43.563,94.395,181.749,125.14c107.613,23.942,76.757,177.061-74.357,185.367
			C149.966,390.771,33.64,341.04,33.64,233.86z"/>
		<path style="fill:none;stroke:#70927F;stroke-width:0.25;stroke-miterlimit:10;" d="M391.915,272.836
			c-48.052,39.387-15.676,106.987,3.257,100.741c16.905-5.578-23.984-94.258-84.386-87.256
			c-99.461,11.53-127.478,57.51-195.252,39.529c-68.246-18.106-81.499-93.882-15.246-137.129
			C166.31,145.626,61.31,71.889,53.048,95.679c-4.713,13.571,47.405,46.869,84.597,15.186s86.441-35.741,117.374,21.902
			s94.051,23.507,134.358,15.583C429.684,140.425,495.193,188.183,391.915,272.836z"/>
	</g>
</g>
<g id="OBJECTS">
	<g>
		<g>
			<circle style="fill:#FFFFFF;" cx="346.244" cy="172.642" r="70.386"/>
			<circle style="fill:#F3F5F4;" cx="351.945" cy="170.958" r="70.386"/>
			<circle style="fill:none;stroke:#70927F;stroke-width:0.25;stroke-miterlimit:10;" cx="346.244" cy="172.642" r="70.386"/>
		</g>
		<g>
			<defs>
				<circle id="SVGID_1_" cx="351.945" cy="170.958" r="70.386"/>
			</defs>
			<clipPath id="SVGID_00000049212624185585346750000006916986422484743352_">
				<use xlink:href="#SVGID_1_"  style="overflow:visible;"/>
			</clipPath>
			<g style="clip-path:url(#SVGID_00000049212624185585346750000006916986422484743352_);">
				<g>
					<polygon style="fill:#B14330;" points="333.85,243.028 322.213,243.028 323.13,217.513 333.276,217.513 					"/>
					<polygon style="fill:#FFB84F;" points="327.133,174.261 315.004,216.089 319.171,220.225 315.004,225.254 337.091,227.726 
											"/>
				</g>
				<g>
					<g>
						<polygon style="fill:#FFB84F;" points="333.85,243.943 368.198,243.943 380.045,169.154 360.987,167.958 339.579,169.154 
							327.133,174.261 						"/>
						<polygon style="fill:#B14330;" points="345.382,180.301 360.987,167.958 355.275,149.048 338.697,151.221 						"/>
						<polygon style="fill:#5F281C;" points="342.107,166.057 349.743,156.532 338.697,151.221 						"/>
						<path style="fill:#B14330;" d="M327.472,141.163c-0.769,8.697,2.094,19.357,10.791,20.125
							c8.697,0.769,19.219-9.576,19.988-18.273s3.98-23.155-7.813-24.198C333.298,117.302,328.241,132.465,327.472,141.163z"/>
						<path style="fill:none;stroke:#422E2D;stroke-miterlimit:10;" d="M343.23,133.44c0,0,0.388,3.01,3.883,4.854"/>
						<path style="fill:none;stroke:#422E2D;stroke-miterlimit:10;" d="M330.071,133.969c0,0,2.25,0.743,4.162-0.529"/>
						<path style="fill:#FFFFFF;" d="M332.94,149.048c0,0,4.047,0.404,10.056,0c0,0-3.056,3.753-7.585,3.372
							C334.37,152.332,332.94,149.048,332.94,149.048z"/>
						<ellipse style="fill:#422E2D;" cx="342.996" cy="140.802" rx="1.224" ry="2.213"/>
						<ellipse style="fill:#422E2D;" cx="332.052" cy="139.436" rx="1.224" ry="2.213"/>
						<path style="fill:#9A2532;" d="M335.922,140.802c0,0-0.933,3.707-5.298,3.425C330.623,144.227,336.147,151.3,335.922,140.802z
							"/>
						<g>
							<path style="fill:#422E2D;" d="M360.987,146.558c10.804-12.922,14.916-15.712,0-26.059c0,0-1.458-9.828-14.288-6.664
								c-19.778,4.877-16.145,6.664-16.786,17.443c0,0,10.663,1.367,19.271-3.663c0,0,0.299,6.057,3.84,9.149l-0.614,6.48
								L360.987,146.558z"/>
							<path style="fill:none;stroke:#422E2D;stroke-miterlimit:10;" d="M360.987,120.499c0,0,1.299-2.711,0-5.535"/>
							<path style="fill:none;stroke:#422E2D;stroke-miterlimit:10;" d="M360.114,121.988c0,0,4.698-2.092,5.089-4.256"/>
						</g>
						
							<ellipse transform="matrix(0.3537 -0.9354 0.9354 0.3537 95.4859 429.0938)" style="fill:#B14330;" cx="358.251" cy="145.45" rx="6.516" ry="5.062"/>
						<polygon style="fill:#FFB84F;" points="364.083,169.154 360.114,159.136 337.968,164.292 344.22,183.156 						"/>
					</g>
				</g>
				<polygon style="fill:#FFD788;" points="338.697,166.492 351.1,165.829 339.579,169.154 				"/>
				<polygon style="fill:#FFB84F;" points="380.045,169.154 382.864,224.502 365.438,233.641 364.083,169.154 				"/>
				<g>
					<path style="fill:#A5BBAA;" d="M358.131,160.073l-5.804-1.809c-0.688-0.215-1.072-0.947-0.858-1.635l4.627-14.843
						c0.215-0.688,0.947-1.072,1.635-0.858l5.804,1.809c0.688,0.215,1.072,0.947,0.858,1.635l-4.627,14.843
						C359.551,159.904,358.819,160.288,358.131,160.073z"/>
					<path style="fill:#E8DFCF;" d="M359.711,160.566l-6.096-1.9c-0.688-0.215-1.072-0.947-0.858-1.635l4.627-14.843
						c0.215-0.688,0.947-1.072,1.635-0.858l6.096,1.9c0.688,0.215,1.072,0.947,0.858,1.635l-4.627,14.843
						C361.132,160.397,360.4,160.781,359.711,160.566z"/>
					<circle style="fill:#A5BBAA;" cx="359.355" cy="143.841" r="0.919"/>
				</g>
				<g>
					<path style="fill:#B14330;" d="M379.355,222.137l-16.758-62.433l-2.545,1.155c0,0-2.376,48.243,8.494,66.654L379.355,222.137z"
						/>
					<g>
						<path style="fill:#B14330;" d="M362.597,159.704l4.978-10.923c0,0-13.105,3.104-7.523,12.078L362.597,159.704z"/>
						<path style="fill:#B14330;" d="M367.575,148.781l-5.835-5.101c0,0-2.053,3.41,4.789,5.755L367.575,148.781z"/>
						<path style="fill:#B14330;" d="M360.042,153.019l3.312-2.167l-3.46-4.294c0,0-1.226,2.223,1.927,4.479L360.042,153.019z"/>
						<path style="fill:#B14330;" d="M366.53,149.435l-6.149-4.874c0,0-1.775,3.104,5.2,5.258L366.53,149.435z"/>
					</g>
				</g>
				<polygon style="fill:#FFD788;" points="333.85,243.943 327.133,174.261 337.968,243.943 				"/>
			</g>
		</g>
		<g>
			<g>
				<rect x="152.128" y="359.459" style="fill:#86593E;" width="55.987" height="8.219"/>
				<polygon style="fill:#B58E67;" points="229.511,408.021 222.539,408.021 189.701,316.542 196.673,316.542 				"/>
				<polygon style="fill:#B58E67;" points="173.282,408.021 180.254,408.021 188.463,316.542 181.491,316.542 				"/>
				<polygon style="fill:#B58E67;" points="132.234,408.021 139.206,408.021 172.044,316.542 165.072,316.542 				"/>
			</g>
			<g>
				<path style="fill:#FFB84F;" d="M198.943,251.828h-57.881c-1.234,0-2.234,1-2.234,2.234v59.747c0,1.963,1.591,3.554,3.554,3.554
					h61.981v-60.115C204.363,254.255,201.936,251.828,198.943,251.828z"/>
				<path style="fill:#FFB84F;" d="M222.293,326.09h-54.94v-8.727h54.94c2.41,0,4.364,1.954,4.364,4.364l0,0
					C226.657,324.136,224.703,326.09,222.293,326.09z"/>
				<path style="fill:#FFD788;" d="M143.539,307.987v-52.465c0-2.04-1.654-3.694-3.694-3.694l0,0c-2.04,0-3.694,1.654-3.694,3.694
					v53.155c0,9.617,7.796,17.413,17.413,17.413h12.794c2.41,0,4.364-1.954,4.364-4.364l0,0c0-2.41-1.954-4.364-4.364-4.364h-13.442
					C147.737,317.363,143.539,313.165,143.539,307.987z"/>
			</g>
			<path style="fill:#B7C9B9;" d="M202.795,316.542h-29.442c-13.775,0-23.564-13.407-19.37-26.528l4.862-15.209l43.179-5.217
				L202.795,316.542z"/>
			<g>
				<polygon style="fill:#EFEBDF;" points="207.191,212.859 219.603,257.073 207.191,257.073 194.136,234.966 				"/>
				<g>
					<path style="fill:#5F281C;" d="M219.033,255.043l31.83,6.156L250,263.851c0,0-28.246,6.734-42.809-6.778L219.033,255.043z"/>
					<g>
						<g>
							<path style="fill:#5F281C;" d="M250.863,261.199l13.692-1.244l-3.794,3.416c-3.011,2.711-7.52,2.913-10.761,0.481l0,0
								L250.863,261.199z"/>
						</g>
						<path style="fill:#5F281C;" d="M264.555,259.954l2.487,5.593c0,0-3.611,0.82-3.548-4.638L264.555,259.954z"/>
						<path style="fill:#5F281C;" d="M261.527,260.682l2.255,5.905C263.781,266.587,259.614,267.053,261.527,260.682z"/>
						<path style="fill:#5F281C;" d="M264.555,259.954l4.654,3.684c0,0-3.139,1.657-4.977-2.956L264.555,259.954z"/>
					</g>
				</g>
			</g>
			<rect x="200.116" y="263.928" style="fill:#FFFFFF;" width="57.822" height="4.108"/>
			<g>
				<g>
					<path style="fill:#FFFFFF;" d="M207.191,212.859l-13.734-5.541h-16.212l-20.726,6.162l9.319,39.38l-8.501,21.254h40.144
						l-3.078-22.238l0.129-0.392c0.735-2.243,2.391-4.024,4.499-5.085c3.59-1.807,5.67-4.242,5.964-6.832
						c0.13-1.149,0.025-2.474-0.234-3.874c-1.171-6.313-0.853-12.815,1.147-18.916L207.191,212.859z"/>
					<path style="fill:#EFEBDF;" d="M199.754,247.599c2.243-1.13,4.227-3.577,4.851-6.506c0,0-4.922,4.422-21.992,2.832
						c-19.691-1.835-7.408,12.717-14.44,30.189h29.306l-3.078-22.238l0.129-0.392C195.266,249.241,197.647,248.661,199.754,247.599z
						"/>
					<polygon style="fill:#B14330;" points="190.963,218.169 177.245,207.319 184.513,192.607 196.839,192.607 					"/>
					<polygon style="fill:#5F281C;" points="193.841,205.648 187.129,197.275 196.839,192.607 					"/>
					<path style="fill:#422E2D;" d="M183.822,162.404c0,0,3.22-2.651,7.247-2.651c3.516,0,12.55,3.712,15.909,12.197
						c3.359,8.485,4.627,15.661,1.274,25.277l-14.828-4.62L183.822,162.404z"/>
					<path style="fill:#B14330;" d="M206.707,183.765c0.676,7.645-1.841,17.015-9.486,17.691s-19.056-8.418-19.732-16.063
						s-1.337-20.355,9.029-21.271C201.585,162.79,206.031,176.119,206.707,183.765z"/>
					<path style="fill:none;stroke:#422E2D;stroke-miterlimit:10;" d="M200.674,177.605c0,0,2.128-1.108,3.848,0.384"/>
					<path style="fill:#422E2D;" d="M176.52,184.192c0,0,17.994-0.205,21.963-15.909c0,0,2.738,0.47,6.511,4.707
						c0,0-1.808-9.28-16.804-9.28C172.896,163.709,176.52,184.192,176.52,184.192z"/>
					<path style="fill:none;stroke:#422E2D;stroke-miterlimit:10;" d="M198.203,167.105c0,0,2.964,12.23-16.234,16.306"/>
					<path style="fill:#422E2D;" d="M183.822,181.346c0,0-2.956,9.35,1.495,18.234c0,0-14.617,1.912-24.255-8.884
						c-0.237-9.743,4.631-19.198,10.75-25.485c5.12-5.26,19.663-6.976,23.352,3.073
						C195.164,168.283,185.136,167.991,183.822,181.346z"/>
					<path style="fill:none;stroke:#422E2D;stroke-miterlimit:10;" d="M209.678,197.884c0,0,6.815-19.082-8.073-31.873"/>
					<path style="fill:none;stroke:#422E2D;stroke-miterlimit:10;" d="M159.561,189.287c0,0,1.492-29.534,26.841-27.365"/>
					<path style="fill:#FFFFFF;" d="M201.9,190.696c0,0-3.558,0.355-8.84,0c0,0,2.686,3.299,6.667,2.964
						C200.643,193.583,201.9,190.696,201.9,190.696z"/>
					<ellipse style="fill:#422E2D;" cx="193.06" cy="183.448" rx="1.076" ry="1.945"/>
					<ellipse style="fill:#422E2D;" cx="202.68" cy="182.247" rx="1.076" ry="1.945"/>
					<path style="fill:#9A2532;" d="M199.279,183.448c0,0,0.82,3.259,4.658,3.01C203.936,186.458,199.08,192.676,199.279,183.448z"
						/>
					
						<ellipse transform="matrix(0.9354 -0.3537 0.3537 0.9354 -54.7155 75.6888)" style="fill:#B14330;" cx="179.709" cy="187.533" rx="4.45" ry="5.728"/>
				</g>
				<g>
					<g>
						<rect x="177.076" y="171.8" style="fill:#709480;" width="2.169" height="11.611"/>
						<rect x="175.631" y="171.8" style="fill:#B4C6B6;" width="2.169" height="11.611"/>
						<path style="fill:#709480;" d="M180.483,174.418v-5.622c0-2.403,1.419-4.793,3.476-6.034c1.075-0.649,4.121-2.545,4.121-2.545
							s-5.285,0.005-7.633,0.906l-0.618,0.237c-2.482,0.953-4.12,3.337-4.12,5.995v7.063H180.483z"/>
						<path style="fill:#B4C6B6;" d="M179.038,174.418v-5.622c0-2.403,1.341-4.604,3.476-5.706l5.566-2.873l-1.703-0.143
							c-2.506-0.211-5.027,0.148-7.375,1.05l-0.618,0.237c-2.482,0.953-4.12,3.337-4.12,5.995v7.063H179.038z"/>
					</g>
					<g>
						<circle style="fill:#B4C6B6;" cx="177.682" cy="186.088" r="6.14"/>
						<circle style="fill:#F1EADF;" cx="176.473" cy="186.088" r="6.14"/>
						<circle style="fill:#B4C6B6;" cx="176.473" cy="186.088" r="3.852"/>
						<circle style="fill:#F1EADF;" cx="176.473" cy="186.088" r="1.749"/>
					</g>
					<g>
						<polygon style="fill:#F1EADF;" points="198.311,198.38 183.697,196.699 176.071,186.386 176.875,185.791 184.243,195.755 
							198.425,197.387 						"/>
					</g>
					<path style="fill:#B4C6B6;" d="M198.632,198.885h-3.586c-0.356,0-0.644-0.288-0.644-0.644v-1.407
						c0-0.356,0.288-0.644,0.644-0.644h3.586c0.356,0,0.644,0.288,0.644,0.644v1.407
						C199.276,198.597,198.988,198.885,198.632,198.885z"/>
				</g>
			</g>
			<polygon style="fill:#EFEBDF;" points="166.88,237.198 164.082,245.444 162.422,239.743 			"/>
			<polygon style="fill:#FFFFFF;" points="156.519,213.48 138.833,257.604 153.444,257.604 166.88,237.198 			"/>
			<path style="fill:#B7C9B9;" d="M234.427,268.036h-12.673c0-3.5,2.837-6.337,6.337-6.337
				C231.59,261.699,234.427,264.536,234.427,268.036z"/>
			<g>
				<path style="fill:#B1432D;" d="M155.532,254.433l61.507,6.766l-0.863,2.653c0,0-48.002,16.395-77.343-6.248L155.532,254.433z"/>
				<g>
					<g>
						<path style="fill:#B1432D;" d="M217.038,261.199l13.692-1.244l-3.794,3.416c-3.011,2.711-7.52,2.913-10.761,0.481h0
							L217.038,261.199z"/>
					</g>
					<path style="fill:#B1432D;" d="M230.731,259.954l2.487,5.593c0,0-3.611,0.82-3.548-4.638L230.731,259.954z"/>
					<path style="fill:#B1432D;" d="M227.702,260.682l2.255,5.905C229.957,266.587,225.79,267.053,227.702,260.682z"/>
					<path style="fill:#B1432D;" d="M230.731,259.954l4.654,3.684c0,0-3.139,1.657-4.977-2.956L230.731,259.954z"/>
				</g>
			</g>
			<g>
				<path style="fill:#70927F;" d="M287.709,250.105h-56.34c-3.528,0-6.331-2.965-6.133-6.487l2.201-36.59
					c0.182-3.254,2.874-5.799,6.133-5.799h56.34c3.528,0,6.331,2.965,6.133,6.487l-2.201,36.59
					C293.66,247.56,290.968,250.105,287.709,250.105z"/>
				<path style="fill:#A5BBAA;" d="M291.236,250.105h-56.34c-3.528,0-6.331-2.965-6.133-6.487l2.201-36.59
					c0.182-3.254,2.874-5.799,6.133-5.799h56.34c3.528,0,6.331,2.965,6.133,6.487l-2.201,36.59
					C297.187,247.56,294.495,250.105,291.236,250.105z"/>
				<g>
					<g>
						<path style="fill:#70927F;" d="M271.677,236.273h-17.582l7.382,26.986c0.242,0.886-0.424,1.76-1.343,1.76h-17.155v3.083
							h19.786h11.74c2.943,0,5.08-2.798,4.307-5.637L271.677,236.273z M270.327,258.408c-2.196,0-3.976-1.78-3.976-3.976
							s1.78-3.976,3.976-3.976c2.196,0,3.976,1.78,3.976,3.976S272.523,258.408,270.327,258.408z"/>
						<g>
							<path style="fill:#70927F;" d="M268.51,225.688h-10.067c-2.401,0-4.348,1.947-4.348,4.348v6.238h18.763v-6.238
								C272.858,227.634,270.911,225.688,268.51,225.688z"/>
							<path style="fill:#E3E3E3;" d="M271.4,225.688h-10.067c-2.401,0-4.348,1.947-4.348,4.348v6.238h18.763v-6.238
								C275.748,227.634,273.801,225.688,271.4,225.688z"/>
							<path style="fill:#E3E3E3;" d="M282.873,262.218l-7.067-25.945h-18.821l1.058,3.886h-0.009l6.638,24.368
								c0.475,1.743-0.774,3.444-2.539,3.575h0.631h2.89h8.783h3.941C281.449,268.101,283.68,265.181,282.873,262.218z
								 M271.772,258.408c-2.196,0-3.976-1.78-3.976-3.976s1.78-3.976,3.976-3.976c2.196,0,3.976,1.78,3.976,3.976
								S273.968,258.408,271.772,258.408z"/>
							<path style="fill:#A5BBAA;" d="M271.4,225.688h-10.067c-2.401,0-4.348,1.947-4.348,4.348v6.238h18.763v-6.238
								C275.748,227.634,273.801,225.688,271.4,225.688z"/>
						</g>
					</g>
					<path style="fill:#A5BBAA;" d="M282.873,262.218l-7.067-25.945h-18.821l1.058,3.886h-0.009l6.638,24.368
						c0.475,1.743-0.774,3.444-2.539,3.575h0.631h2.89h8.783h3.941C281.449,268.101,283.68,265.181,282.873,262.218z
						 M271.772,258.408c-2.196,0-3.976-1.78-3.976-3.976s1.78-3.976,3.976-3.976c2.196,0,3.976,1.78,3.976,3.976
						S273.968,258.408,271.772,258.408z"/>
					<path style="fill:none;stroke:#F3F5F4;stroke-linecap:round;stroke-linejoin:round;stroke-miterlimit:10;" d="M282.873,262.218
						l-7.067-25.945l-0.058,0v-6.238c0-2.401-1.947-4.348-4.348-4.348h-10.067"/>
					<path style="fill:none;stroke:#F3F5F4;stroke-linecap:round;stroke-linejoin:round;stroke-miterlimit:10;" d="M275.805,236.273
						l7.067,25.945c0.807,2.963-1.424,5.883-4.495,5.883"/>
				</g>
				<g>
					<g>
						<path style="fill:#D1CEC7;" d="M236.26,233.86c-0.008,0-0.017,0-0.025-0.001c-0.244-0.013-0.431-0.223-0.417-0.466
							l1.213-21.629c0.013-0.244,0.219-0.437,0.466-0.417c0.244,0.013,0.431,0.223,0.417,0.466l-1.213,21.629
							C236.688,233.678,236.493,233.86,236.26,233.86z"/>
					</g>
					<g>
						<path style="fill:#D1CEC7;" d="M239.143,233.86c-0.008,0-0.017,0-0.025-0.001c-0.244-0.013-0.431-0.223-0.417-0.466
							l1.213-21.629c0.013-0.244,0.217-0.437,0.466-0.417c0.244,0.013,0.431,0.223,0.417,0.466l-1.213,21.629
							C239.571,233.678,239.376,233.86,239.143,233.86z"/>
					</g>
					<g>
						<path style="fill:#D1CEC7;" d="M242.026,233.86c-0.008,0-0.017,0-0.025-0.001c-0.244-0.013-0.431-0.223-0.417-0.466
							l1.213-21.629c0.013-0.244,0.214-0.437,0.466-0.417c0.244,0.013,0.431,0.223,0.417,0.466l-1.213,21.629
							C242.454,233.678,242.259,233.86,242.026,233.86z"/>
					</g>
					<g>
						<path style="fill:#D1CEC7;" d="M244.908,233.86c-0.008,0-0.017,0-0.025-0.001c-0.244-0.013-0.431-0.223-0.417-0.466
							l1.213-21.629c0.013-0.244,0.225-0.437,0.466-0.417c0.244,0.013,0.431,0.223,0.417,0.466l-1.213,21.629
							C245.337,233.678,245.141,233.86,244.908,233.86z"/>
					</g>
					<g>
						<path style="fill:#D1CEC7;" d="M247.791,233.86c-0.008,0-0.017,0-0.025-0.001c-0.244-0.013-0.431-0.223-0.417-0.466
							l1.213-21.629c0.013-0.244,0.223-0.437,0.466-0.417c0.244,0.013,0.431,0.223,0.417,0.466l-1.213,21.629
							C248.22,233.678,248.024,233.86,247.791,233.86z"/>
					</g>
				</g>
				<g>
					<g>
						<path style="fill:#D1CEC7;" d="M281.239,233.86c-0.008,0-0.017,0-0.025-0.001c-0.244-0.013-0.431-0.223-0.417-0.466
							l1.213-21.629c0.013-0.244,0.223-0.437,0.466-0.417c0.244,0.013,0.431,0.223,0.417,0.466l-1.213,21.629
							C281.667,233.678,281.471,233.86,281.239,233.86z"/>
					</g>
					<g>
						<path style="fill:#D1CEC7;" d="M284.121,233.86c-0.008,0-0.017,0-0.025-0.001c-0.244-0.013-0.431-0.223-0.417-0.466
							l1.213-21.629c0.013-0.244,0.22-0.437,0.466-0.417c0.244,0.013,0.431,0.223,0.417,0.466l-1.213,21.629
							C284.549,233.678,284.354,233.86,284.121,233.86z"/>
					</g>
					<g>
						<path style="fill:#D1CEC7;" d="M287.004,233.86c-0.008,0-0.017,0-0.025-0.001c-0.244-0.013-0.431-0.223-0.417-0.466
							l1.213-21.629c0.013-0.244,0.218-0.437,0.466-0.417c0.244,0.013,0.431,0.223,0.417,0.466l-1.213,21.629
							C287.432,233.678,287.237,233.86,287.004,233.86z"/>
					</g>
					<g>
						<path style="fill:#D1CEC7;" d="M289.887,233.86c-0.008,0-0.017,0-0.025-0.001c-0.244-0.013-0.431-0.223-0.417-0.466
							l1.213-21.629c0.013-0.244,0.215-0.437,0.466-0.417c0.244,0.013,0.431,0.223,0.417,0.466l-1.213,21.629
							C290.315,233.678,290.12,233.86,289.887,233.86z"/>
					</g>
					<g>
						<path style="fill:#D1CEC7;" d="M292.77,233.86c-0.008,0-0.017,0-0.025-0.001c-0.244-0.013-0.431-0.223-0.417-0.466
							l1.213-21.629c0.013-0.244,0.226-0.437,0.466-0.417c0.244,0.013,0.431,0.223,0.417,0.466l-1.213,21.629
							C293.198,233.678,293.003,233.86,292.77,233.86z"/>
					</g>
				</g>
			</g>
			<path style="fill:#B7C9B9;" d="M230.674,285.171h-19.686l-9.714,105.168h3.041c22.843-61.109,29.402-88.603,31.285-99.307
				C236.139,287.971,233.782,285.171,230.674,285.171z"/>
			<path style="fill:#A5BBAA;" d="M201.645,386.334c0,0,21.809-56.205,16.193-94.186c-0.357-2.418-6.849-6.977-6.849-6.977
				L201.645,386.334z"/>
			<path style="fill:#B7C9B9;" d="M211.612,285.171h-16.716l-39.255,101.163l2.458,4.005c28.29-43.482,54.118-82.072,59.467-96.618
				C219.093,289.571,216.034,285.171,211.612,285.171z"/>
			<path style="fill:#A5BBAA;" d="M188.463,302.722c-9.556,2.342-19.619-0.98-21.584-6.969c-2.229-6.794,3.453-10.582,3.453-10.582
				l-4.19-11.247l-7.298,0.882l-4.862,15.209c-4.194,13.121,5.595,26.528,19.37,26.528h9.37l-27.082,69.792
				C196.263,321.694,188.463,302.722,188.463,302.722z"/>
			<polygon style="fill:#70927F;" points="158.377,276.271 202.091,276.271 202.283,285.171 155.532,285.171 			"/>
			<g>
				<polygon style="fill:#B1432D;" points="204.315,390.339 204.315,402.874 212.164,403.726 201.915,403.726 201.275,396.06 
					197.656,391.314 201.645,386.334 				"/>
				<path style="fill:#E8DFCF;" d="M212.164,403.726l-1.223,4.295h-8.1c-1.394,0-2.524-1.13-2.524-2.524v-8.45l-4.141-5.384
					l5.468-5.329l0.27,17.392H212.164z"/>
				<polygon style="fill:#E8DFCF;" points="196.176,391.662 196.176,408.021 199.024,393.476 				"/>
			</g>
			<g>
				<polygon style="fill:#B1432D;" points="158.313,390.339 158.313,402.874 166.161,403.726 155.912,403.726 155.272,396.06 
					151.653,391.314 155.642,386.334 				"/>
				<path style="fill:#E8DFCF;" d="M166.161,403.726l-1.223,4.295h-8.1c-1.394,0-2.524-1.13-2.524-2.524v-8.45l-4.141-5.384
					l5.468-5.329l0.27,17.392H166.161z"/>
				<polygon style="fill:#E8DFCF;" points="150.173,391.662 150.173,408.021 153.021,393.476 				"/>
			</g>
			<g>
				<g>
					<g>
						<path style="fill:#E8DFCF;" d="M148.271,408.021h-25.598c-4.054,0-7.34-3.286-7.34-7.34v-124.41h40.277v124.41
							C155.611,404.734,152.325,408.021,148.271,408.021z"/>
						<path style="fill:#A5BBAA;" d="M142.525,408.021h-25.598c-4.054,0-7.34-3.286-7.34-7.34v-124.41h40.277v124.41
							C149.864,404.734,146.578,408.021,142.525,408.021z"/>
					</g>
					<g>
						<path style="fill:#E8DFCF;" d="M304.295,408.021h-25.598c-4.054,0-7.34-3.286-7.34-7.34v-124.41h40.277v124.41
							C311.635,404.734,308.349,408.021,304.295,408.021z"/>
						<path style="fill:#A5BBAA;" d="M298.548,408.021H272.95c-4.054,0-7.34-3.286-7.34-7.34v-124.41h40.277v124.41
							C305.888,404.734,302.602,408.021,298.548,408.021z"/>
					</g>
				</g>
				<g>
					<path style="fill:#A5BBAA;" d="M97.592,280.721H301.91c2.57,0,4.653-2.083,4.653-4.653v-3.378c0-2.57-2.083-4.653-4.653-4.653
						H97.592c-2.57,0-4.653,2.083-4.653,4.653v3.378C92.939,278.637,95.022,280.721,97.592,280.721z"/>
					<path style="fill:#E8DFCF;" d="M190.138,280.721h142.571c2.57,0,4.653-2.083,4.653-4.653v-3.378
						c0-2.57-2.083-4.653-4.653-4.653H190.138c-2.57,0-4.653,2.083-4.653,4.653v3.378
						C185.485,278.637,187.568,280.721,190.138,280.721z"/>
				</g>
				<rect x="109.587" y="280.721" style="fill:#70927F;" width="40.277" height="7.417"/>
				<rect x="265.611" y="280.721" style="fill:#70927F;" width="40.277" height="7.417"/>
			</g>
		</g>
		<g>
			<path style="fill:#FFFFFF;stroke:#70927F;stroke-width:0.25;stroke-miterlimit:10;" d="M319.307,145.98l-10.283-8.234h-65.1
				c-4.336,0-7.851-3.515-7.851-7.851v-10.77c0-4.336,3.515-7.851,7.851-7.851h67.532c4.336,0,7.851,3.515,7.851,7.851V145.98z"/>
			<g>
				
					<line style="fill:none;stroke:#70927F;stroke-width:0.25;stroke-miterlimit:10;" x1="245.361" y1="117.822" x2="290.953" y2="117.822"/>
				
					<line style="fill:none;stroke:#70927F;stroke-width:0.25;stroke-miterlimit:10;" x1="245.361" y1="123.878" x2="290.953" y2="123.878"/>
				
					<line style="fill:none;stroke:#70927F;stroke-width:0.25;stroke-miterlimit:10;" x1="245.361" y1="129.934" x2="290.953" y2="129.934"/>
			</g>
		</g>
		<g>
			<path style="fill:#FFFFFF;stroke:#70927F;stroke-width:0.25;stroke-miterlimit:10;" d="M218.226,182.799l10.283-8.234h65.1
				c4.336,0,7.851-3.515,7.851-7.851v-10.77c0-4.336-3.515-7.851-7.851-7.851h-67.532c-4.336,0-7.851,3.515-7.851,7.851V182.799z"/>
			<g>
				
					<line style="fill:none;stroke:#70927F;stroke-width:0.25;stroke-miterlimit:10;" x1="292.171" y1="154.641" x2="246.579" y2="154.641"/>
				
					<line style="fill:none;stroke:#70927F;stroke-width:0.25;stroke-miterlimit:10;" x1="292.171" y1="160.697" x2="246.579" y2="160.697"/>
				
					<line style="fill:none;stroke:#70927F;stroke-width:0.25;stroke-miterlimit:10;" x1="292.171" y1="166.753" x2="246.579" y2="166.753"/>
			</g>
		</g>
		<g>
			<path style="fill:#A5BBAA;" d="M380.326,134.533l0.264-0.058c4.17,2.497,6.885,2.377,8.249,0.252l0.041-0.064
				c1.158-1.802,0.58-3.946-1.738-5.435c-2.028-1.303-4.28-1.476-6.88-0.827l-0.76-4.126c3.231-0.925,6.576-0.823,10.052,1.41
				c4.506,2.894,5.951,7.369,3.367,11.392l-0.041,0.064c-2.605,4.055-6.712,4.009-10.678,2.325l-1.976,2.368l-2.607-1.675
				L380.326,134.533z M374.951,142.265l4.313,2.77l-2.853,4.441l-4.313-2.77L374.951,142.265z"/>
		</g>
		<g>
			<g>
				<g>
					<g>
						<path style="fill:#E8DFCF;" d="M102.486,316.838L102.486,316.838c-5.804,0-10.509,4.705-10.509,10.509v67.868
							c0,1.517,1.23,2.747,2.747,2.747h15.524c1.517,0,2.747-1.23,2.747-2.747v-67.868
							C112.995,321.543,108.29,316.838,102.486,316.838z"/>
					</g>
					<g>
						<path style="fill:#E8DFCF;" d="M111.784,358.38h-6.917c-2.86,0-5.179-2.319-5.179-5.179s2.319-5.179,5.179-5.179h6.917
							c3.85,0,6.982-3.132,6.982-6.982v-7.247c0-2.86,2.319-5.179,5.179-5.179c2.86,0,5.179,2.319,5.179,5.179v7.247
							C129.124,350.601,121.345,358.38,111.784,358.38z"/>
					</g>
					<g>
						<path style="fill:#E8DFCF;" d="M100.809,372.026h-7.248c-9.561,0-17.34-7.779-17.34-17.341v-6.917
							c0-2.86,2.319-5.179,5.179-5.179s5.179,2.319,5.179,5.179v6.917c0,3.85,3.132,6.982,6.982,6.982h7.248
							c2.86,0,5.179,2.319,5.179,5.179S103.669,372.026,100.809,372.026z"/>
					</g>
				</g>
				<g>
					<g>
						<rect x="96.503" y="328.631" style="fill:#F3F5F4;" width="0.863" height="3.603"/>
					</g>
					<g>
						<rect x="107.511" y="323.226" style="fill:#F3F5F4;" width="0.863" height="3.603"/>
					</g>
					<g>
						<rect x="101.378" y="344.166" style="fill:#F3F5F4;" width="0.863" height="3.602"/>
					</g>
					<g>
						<rect x="104.435" y="333.257" style="fill:#F3F5F4;" width="0.863" height="3.603"/>
					</g>
					<g>
						<rect x="109.152" y="364.09" style="fill:#F3F5F4;" width="0.863" height="3.603"/>
					</g>
					<g>
						<rect x="120.921" y="331.991" style="fill:#F3F5F4;" width="0.863" height="3.603"/>
					</g>
					<g>
						<rect x="96.503" y="355.598" style="fill:#F3F5F4;" width="0.863" height="3.603"/>
					</g>
					<g>
						<rect x="97.403" y="370.987" style="fill:#F3F5F4;" width="0.863" height="3.603"/>
					</g>
					<g>
						<rect x="105.509" y="354.775" style="fill:#F3F5F4;" width="0.863" height="3.603"/>
					</g>
					<g>
						<rect x="79.253" y="355.506" style="fill:#F3F5F4;" width="0.863" height="3.603"/>
					</g>
					<g>
						<rect x="83.392" y="348.783" style="fill:#F3F5F4;" width="0.863" height="3.603"/>
					</g>
					<g>
						<rect x="85.294" y="359.109" style="fill:#F3F5F4;" width="0.863" height="3.603"/>
					</g>
					<g>
						<rect x="109.913" y="341.04" style="fill:#F3F5F4;" width="0.863" height="3.603"/>
					</g>
					<g>
						<rect x="122.723" y="345.966" style="fill:#F3F5F4;" width="0.863" height="3.603"/>
					</g>
				</g>
			</g>
			<g>
				<path style="fill:#F3F5F4;" d="M120.292,378.028H85.053c-0.952,0-1.686,0.839-1.56,1.782l3.651,27.333
					c0.373,2.792,2.755,4.877,5.572,4.877h20.52c2.864,0,5.27-2.153,5.587-5l3.033-27.245
					C121.96,378.844,121.23,378.028,120.292,378.028z"/>
				<polygon style="fill:#70927F;" points="120.217,394.501 120.834,388.962 84.715,388.962 85.455,394.501 				"/>
			</g>
		</g>
		<circle style="fill:#F3F5F4;stroke:#70927F;stroke-width:0.25;stroke-miterlimit:10;" cx="85.392" cy="237.198" r="8.74"/>
		<circle style="fill:#F3F5F4;stroke:#70927F;stroke-width:0.25;stroke-miterlimit:10;" cx="358.121" cy="257.604" r="8.74"/>
		<circle style="fill:#F3F5F4;stroke:#70927F;stroke-width:0.25;stroke-miterlimit:10;" cx="348.128" cy="313.071" r="4.37"/>
		<polygon style="fill:#F3F5F4;stroke:#70927F;stroke-width:0.25;stroke-miterlimit:10;" points="408.034,176.688 404.669,190.522 
			394.2,180.052 		"/>
		<polygon style="fill:#F3F5F4;stroke:#70927F;stroke-width:0.25;stroke-miterlimit:10;" points="174.677,137.671 162.516,145.074 
			162.516,130.268 		"/>
		<polygon style="fill:#F3F5F4;stroke:#70927F;stroke-width:0.25;stroke-miterlimit:10;" points="408.895,308.701 396.734,316.104 
			396.734,301.298 		"/>
		<g>
			<path style="fill:#FFFFFF;stroke:#70927F;stroke-width:0.25;stroke-miterlimit:10;" d="M422.248,281.692h-57.734
				c-3.531,0-6.394-2.863-6.394-6.394v-11.42c0-3.531,2.863-6.394,6.394-6.394h57.734c3.531,0,6.394,2.863,6.394,6.394v11.42
				C428.642,278.829,425.78,281.692,422.248,281.692z"/>
			<g>
				
					<line style="fill:none;stroke:#70927F;stroke-width:0.25;stroke-miterlimit:10;" x1="416.177" y1="263.532" x2="370.585" y2="263.532"/>
				
					<line style="fill:none;stroke:#70927F;stroke-width:0.25;stroke-miterlimit:10;" x1="416.177" y1="269.588" x2="370.585" y2="269.588"/>
				
					<line style="fill:none;stroke:#70927F;stroke-width:0.25;stroke-miterlimit:10;" x1="416.177" y1="275.644" x2="370.585" y2="275.644"/>
			</g>
		</g>
		<g>
			<path style="fill:#FFFFFF;stroke:#70927F;stroke-width:0.25;stroke-miterlimit:10;" d="M137.239,204.09H79.506
				c-3.531,0-6.394-2.863-6.394-6.394v-11.42c0-3.531,2.863-6.394,6.394-6.394h57.734c3.531,0,6.394,2.863,6.394,6.394v11.42
				C143.633,201.227,140.771,204.09,137.239,204.09z"/>
			<g>
				
					<line style="fill:none;stroke:#70927F;stroke-width:0.25;stroke-miterlimit:10;" x1="131.168" y1="185.93" x2="85.577" y2="185.93"/>
				
					<line style="fill:none;stroke:#70927F;stroke-width:0.25;stroke-miterlimit:10;" x1="131.168" y1="191.986" x2="85.577" y2="191.986"/>
				
					<line style="fill:none;stroke:#70927F;stroke-width:0.25;stroke-miterlimit:10;" x1="131.168" y1="198.042" x2="85.577" y2="198.042"/>
			</g>
		</g>
	</g>
</g>
<g id="DESIGNED_BY_FREEPIK">
	<g>
		<g id="XMLID_319_">
			<g id="XMLID_338_">
				<path id="XMLID_346_" style="fill:#231F20;" d="M260.104,465.465c-0.432,0.443-0.803,0.931-1.108,1.453l-0.465-0.241
					c-0.067-0.298-0.349-0.503-0.659-0.466c-0.331,0.039-0.568,0.339-0.529,0.67c0.039,0.331,0.339,0.568,0.67,0.529
					c0.065-0.008,0.127-0.026,0.184-0.052l0.452,0.234c-0.251,0.554-0.433,1.139-0.539,1.744l0.746,0.132
					c0.23-1.306,0.85-2.507,1.792-3.473L260.104,465.465z"/>
				<path id="XMLID_345_" style="fill:#231F20;" d="M265.592,463.163c-0.171,0-0.341,0.006-0.51,0.017l-0.074-0.626
					c0.188-0.149,0.296-0.389,0.266-0.645c-0.046-0.393-0.402-0.674-0.795-0.628s-0.674,0.402-0.628,0.795
					c0.03,0.254,0.189,0.461,0.405,0.564l0.073,0.624c-0.714,0.116-1.403,0.332-2.06,0.646l0.327,0.684
					c0.934-0.447,1.942-0.673,2.995-0.673c0.496,0,0.993,0.053,1.475,0.158l0.161-0.741
					C266.692,463.222,266.142,463.163,265.592,463.163z"/>
				<path id="XMLID_344_" style="fill:#231F20;" d="M272.194,465.711c0.331-0.04,0.566-0.341,0.526-0.672
					c-0.04-0.331-0.342-0.566-0.672-0.526c-0.309,0.038-0.535,0.304-0.53,0.609l-0.416,0.363c-0.418-0.43-0.89-0.813-1.408-1.139
					l-0.404,0.641c1.134,0.715,2.021,1.726,2.563,2.925l0.69-0.313c-0.251-0.554-0.568-1.072-0.942-1.545l0.402-0.351
					C272.065,465.716,272.129,465.719,272.194,465.711z"/>
				<path id="XMLID_343_" style="fill:#231F20;" d="M265.044,473.372c-0.386,0.023-0.775,0.035-1.157,0.035
					c-0.88,0-1.733-0.061-2.478-0.179c-0.39-0.062-0.846-0.155-1.27-0.292c1.046,1.861,3.069,3.125,5.388,3.125
					c2.855,0,5.262-1.916,5.95-4.504c-0.682,0.449-1.505,0.825-2.459,1.123C267.839,473.047,266.463,473.286,265.044,473.372z"/>
				<path id="XMLID_339_" style="fill:#231F20;" d="M265.592,464.68c-3.352,0-6.08,2.666-6.08,5.943
					c0,0.426,0.046,0.849,0.137,1.261c0.673,0.483,2.706,0.89,5.348,0.731c2.879-0.173,5.297-0.957,6.672-2.159
					c-0.005-0.195-0.021-0.39-0.045-0.582C271.244,466.913,268.65,464.68,265.592,464.68z M263.432,471.194
					c-1.02,0-1.85-0.83-1.85-1.85c0-1.02,0.83-1.85,1.85-1.85c1.02,0,1.85,0.83,1.85,1.85
					C265.282,470.365,264.452,471.194,263.432,471.194z M268.17,470.286c-0.75,0-1.36-0.61-1.36-1.36s0.61-1.361,1.36-1.361
					c0.75,0,1.36,0.61,1.36,1.361S268.92,470.286,268.17,470.286z"/>
			</g>
			<path id="XMLID_336_" style="fill:#231F20;" d="M281.595,466.547c-0.295-0.116-0.806-0.309-1.382-0.237
				c-0.551,0.069-0.844,0.341-0.844,1.007v0.866h2.228v1.717h-2.228v5.455h-1.932v-5.455h-1.34v-1.717h1.34v-0.888
				c0-1.68,0.896-2.783,2.568-2.783c0.642,0,1.157,0.122,1.59,0.308L281.595,466.547z"/>
			<path id="XMLID_334_" style="fill:#231F20;" d="M286.298,469.879c-0.177-0.03-0.358-0.046-0.526-0.046
				c-0.895,0-1.51,0.548-1.51,1.614v3.908h-1.932v-7.172h1.873v0.785c0.451-0.673,1.14-0.977,2.021-0.977
				c0.414,0,0.848,0.128,1.094,0.337L286.298,469.879z"/>
			<path id="XMLID_331_" style="fill:#231F20;" d="M293.965,471.757c0,0.222-0.015,0.489-0.037,0.651h-5.085
				c0.207,1.036,0.933,1.488,1.843,1.488c0.622,0,1.295-0.252,1.813-0.688l1.133,1.243c-0.814,0.748-1.85,1.088-3.057,1.088
				c-2.198,0-3.723-1.495-3.723-3.753c0-2.258,1.48-3.797,3.626-3.797C292.544,467.99,293.958,469.522,293.965,471.757z
				 M288.851,471.091h3.175c-0.177-0.918-0.733-1.436-1.562-1.436C289.554,469.655,289.021,470.203,288.851,471.091z"/>
			<path id="XMLID_328_" style="fill:#231F20;" d="M301.618,471.757c0,0.222-0.015,0.489-0.037,0.651h-5.085
				c0.207,1.036,0.932,1.488,1.843,1.488c0.622,0,1.295-0.252,1.813-0.688l1.132,1.243c-0.814,0.748-1.85,1.088-3.057,1.088
				c-2.198,0-3.723-1.495-3.723-3.753c0-2.258,1.48-3.797,3.627-3.797C300.197,467.99,301.611,469.522,301.618,471.757z
				 M296.504,471.091h3.175c-0.178-0.918-0.733-1.436-1.562-1.436C297.207,469.655,296.674,470.203,296.504,471.091z"/>
			<path id="XMLID_325_" style="fill:#231F20;" d="M309.964,471.764c0,2.154-1.495,3.775-3.471,3.775
				c-0.962,0-1.643-0.378-2.109-0.933v3.708h-1.924v-10.133h1.887v0.792c0.466-0.585,1.155-0.984,2.139-0.984
				C308.469,467.99,309.964,469.61,309.964,471.764z M304.287,471.764c0,1.132,0.747,1.976,1.843,1.976
				c1.14,0,1.85-0.881,1.85-1.976c0-1.095-0.711-1.976-1.85-1.976C305.035,469.788,304.287,470.632,304.287,471.764z"/>
			<path id="XMLID_322_" style="fill:#231F20;" d="M313.068,465.836c0,0.696-0.54,1.229-1.236,1.229
				c-0.696,0-1.229-0.533-1.229-1.229c0-0.696,0.533-1.243,1.229-1.243C312.527,464.592,313.068,465.14,313.068,465.836z
				 M312.809,475.354h-1.932v-7.172h1.932V475.354z"/>
			<path id="XMLID_320_" style="fill:#231F20;" d="M316.032,470.736l2.702-2.554h2.368l-3.479,3.375l3.501,3.797h-2.376
				l-2.716-2.901v2.901H314.1v-10.658h1.932V470.736z"/>
		</g>
		<g>
			<path style="fill:#231F20;" d="M184.412,475.289v-1.055c-0.527,0.718-1.391,1.23-2.387,1.23c-1.846,0-3.149-1.406-3.149-3.706
				c0-2.256,1.289-3.721,3.149-3.721c0.952,0,1.816,0.469,2.387,1.245v-3.765h1.099v9.77H184.412z M184.412,473.37v-3.208
				c-0.395-0.615-1.245-1.143-2.124-1.143c-1.421,0-2.27,1.172-2.27,2.739c0,1.567,0.85,2.724,2.27,2.724
				C183.168,474.483,184.017,473.986,184.412,473.37z"/>
			<path style="fill:#231F20;" d="M186.932,471.744c0-2.051,1.465-3.706,3.486-3.706c2.139,0,3.398,1.67,3.398,3.794v0.279h-5.727
				c0.088,1.333,1.025,2.446,2.549,2.446c0.805,0,1.626-0.322,2.182-0.894l0.527,0.718c-0.703,0.703-1.655,1.084-2.812,1.084
				C188.44,475.465,186.932,473.956,186.932,471.744z M190.403,468.947c-1.509,0-2.256,1.274-2.314,2.358h4.643
				C192.718,470.25,192.015,468.947,190.403,468.947z"/>
			<path style="fill:#231F20;" d="M194.607,474.351l0.571-0.791c0.469,0.542,1.362,1.011,2.329,1.011c1.084,0,1.67-0.513,1.67-1.216
				c0-1.714-4.38-0.659-4.38-3.281c0-1.098,0.952-2.036,2.636-2.036c1.201,0,2.051,0.454,2.622,1.026l-0.513,0.762
				c-0.424-0.513-1.201-0.894-2.109-0.894c-0.967,0-1.567,0.483-1.567,1.113c0,1.552,4.38,0.527,4.38,3.281
				c0,1.187-0.952,2.138-2.783,2.138C196.306,475.465,195.325,475.113,194.607,474.351z"/>
			<path style="fill:#231F20;" d="M201.477,466.471c0-0.41,0.337-0.747,0.732-0.747c0.41,0,0.747,0.337,0.747,0.747
				c0,0.41-0.337,0.732-0.747,0.732C201.814,467.203,201.477,466.881,201.477,466.471z M201.667,475.289v-7.075h1.099v7.075H201.667
				z"/>
			<path style="fill:#231F20;" d="M204.582,477.105l0.556-0.82c0.586,0.703,1.289,0.967,2.3,0.967c1.172,0,2.27-0.571,2.27-2.124
				v-1.011c-0.513,0.718-1.377,1.26-2.373,1.26c-1.845,0-3.149-1.377-3.149-3.662c0-2.27,1.289-3.677,3.149-3.677
				c0.952,0,1.802,0.469,2.373,1.245v-1.069h1.098v6.87c0,2.344-1.641,3.076-3.369,3.076
				C206.237,478.16,205.417,477.926,204.582,477.105z M209.709,473.253v-3.091c-0.381-0.615-1.23-1.143-2.109-1.143
				c-1.421,0-2.27,1.128-2.27,2.695c0,1.553,0.849,2.695,2.27,2.695C208.478,474.41,209.328,473.868,209.709,473.253z"/>
			<path style="fill:#231F20;" d="M217.413,475.289v-4.629c0-1.245-0.63-1.641-1.582-1.641c-0.865,0-1.685,0.527-2.095,1.099v5.17
				h-1.099v-7.075h1.099v1.025c0.498-0.586,1.464-1.201,2.519-1.201c1.48,0,2.256,0.747,2.256,2.285v4.966H217.413z"/>
			<path style="fill:#231F20;" d="M219.932,471.744c0-2.051,1.465-3.706,3.486-3.706c2.139,0,3.398,1.67,3.398,3.794v0.279h-5.727
				c0.088,1.333,1.025,2.446,2.549,2.446c0.806,0,1.626-0.322,2.183-0.894l0.527,0.718c-0.703,0.703-1.655,1.084-2.812,1.084
				C221.441,475.465,219.932,473.956,219.932,471.744z M223.404,468.947c-1.509,0-2.256,1.274-2.314,2.358h4.643
				C225.718,470.25,225.015,468.947,223.404,468.947z"/>
			<path style="fill:#231F20;" d="M233.35,475.289v-1.055c-0.527,0.718-1.392,1.23-2.388,1.23c-1.846,0-3.149-1.406-3.149-3.706
				c0-2.256,1.289-3.721,3.149-3.721c0.952,0,1.817,0.469,2.388,1.245v-3.765h1.098v9.77H233.35z M233.35,473.37v-3.208
				c-0.396-0.615-1.245-1.143-2.124-1.143c-1.421,0-2.27,1.172-2.27,2.739c0,1.567,0.849,2.724,2.27,2.724
				C232.105,474.483,232.954,473.986,233.35,473.37z"/>
			<path style="fill:#231F20;" d="M239.692,475.289v-9.77h1.098v3.765c0.572-0.776,1.421-1.245,2.388-1.245
				c1.845,0,3.149,1.465,3.149,3.721c0,2.299-1.304,3.706-3.149,3.706c-0.996,0-1.86-0.513-2.388-1.23v1.055H239.692z
				 M242.9,474.483c1.436,0,2.285-1.157,2.285-2.724c0-1.568-0.85-2.739-2.285-2.739c-0.864,0-1.728,0.527-2.109,1.143v3.208
				C241.171,473.986,242.036,474.483,242.9,474.483z"/>
			<path style="fill:#231F20;" d="M247.528,477.061c0.161,0.073,0.425,0.117,0.601,0.117c0.483,0,0.805-0.161,1.055-0.747
				l0.469-1.069l-2.959-7.148h1.187l2.358,5.8l2.344-5.8h1.201l-3.545,8.51c-0.425,1.025-1.143,1.421-2.08,1.435
				c-0.234,0-0.601-0.044-0.805-0.103L247.528,477.061z"/>
		</g>
	</g>
</g>
</svg>
